<?xml version="1.0" encoding="utf-8"?>
<!-- Generator: Adobe Illustrator 19.0.0, SVG Export Plug-In . SVG Version: 6.00 Build 0)  -->
<svg version="1.1" baseProfile="tiny" id="Layer_1" xmlns="http://www.w3.org/2000/svg" xmlns:xlink="http://www.w3.org/1999/xlink"
	 x="0px" y="0px" viewBox="0 0 10 9.9" xml:space="preserve">
<g id="_x34__2_">
	<path id="XMLID_150_" fill="#FFFFFF" d="M7.2,4.7H3.9l1.3-1.3c0.1-0.1,0.1-0.3,0-0.4S4.8,2.8,4.7,3L3,4.7C2.9,4.8,2.9,4.9,2.9,5
		c0,0.1,0,0.2,0.1,0.3L4.7,7C4.8,7.2,5,7.2,5.2,7c0.1-0.1,0.1-0.3,0-0.4L3.9,5.3h3.3c0.2,0,0.3-0.1,0.3-0.3C7.5,4.8,7.4,4.7,7.2,4.7
		z M5,0C2.2,0,0,2.2,0,5c0,2.8,2.2,5,5,5c2.8,0,5-2.2,5-5C10,2.2,7.8,0,5,0z M5,9.4c-2.4,0-4.4-2-4.4-4.4c0-2.4,2-4.4,4.4-4.4
		c2.4,0,4.4,2,4.4,4.4C9.4,7.4,7.4,9.4,5,9.4z"/>
</g>
</svg>
