<?xml version="1.0" encoding="utf-8"?>
<!-- Generator: Adobe Illustrator 17.0.0, SVG Export Plug-In . SVG Version: 6.00 Build 0)  -->
<!DOCTYPE svg PUBLIC "-//W3C//DTD SVG 1.1//EN" "http://www.w3.org/Graphics/SVG/1.1/DTD/svg11.dtd">
<svg version="1.1" id="Layer_1" xmlns="http://www.w3.org/2000/svg" xmlns:xlink="http://www.w3.org/1999/xlink" x="0px" y="0px"
	 width="204.802px" height="607.573px" viewBox="580.6 3.413 204.802 607.573" enable-background="new 580.6 3.413 204.802 607.573"
	 xml:space="preserve">
<circle fill="#FFFFFF" cx="683" cy="88.747" r="20.48"/>
<path fill="#FFFFFF" d="M683,3.413c-56.552,0-102.4,45.855-102.4,102.414v170.639c0,56.559,45.848,102.414,102.4,102.414
	c56.552,0,102.4-45.855,102.4-102.414V105.827C785.4,49.268,739.552,3.413,683,3.413z M771.747,276.466
	c0,48.94-39.813,88.76-88.747,88.76c-48.934,0-88.747-39.82-88.747-88.76V105.827c0-48.94,39.813-88.76,88.747-88.76
	c48.934,0,88.747,39.82,88.747,88.76V276.466z"/>
<path fill="#FFFFFF" d="M773.747,408.187L683,498.934l-90.747-90.747c-2.669-2.669-6.984-2.669-9.653,0
	c-2.669,2.669-2.669,6.984,0,9.653l95.573,95.573c1.331,1.331,3.079,2,4.826,2c1.748,0,3.495-0.669,4.826-2L783.4,417.84
	c2.669-2.669,2.669-6.984,0-9.653C780.731,405.518,776.416,405.518,773.747,408.187z"/>
<path fill="#FFFFFF" d="M773.747,503.76L683,594.507l-90.747-90.747c-2.669-2.669-6.984-2.669-9.653,0
	c-2.669,2.669-2.669,6.984,0,9.653l95.573,95.573c1.331,1.331,3.079,2,4.826,2c1.748,0,3.495-0.669,4.826-2l95.573-95.573
	c2.669-2.669,2.669-6.984,0-9.653C780.731,501.091,776.416,501.091,773.747,503.76z"/>
</svg>
